<svg width="25" height="24" viewBox="0 0 25 24" fill="none" xmlns="http://www.w3.org/2000/svg">
<path d="M7.57325 2H5.67325C3.48325 2 2.33325 3.15 2.33325 5.33V7.23C2.33325 9.41 3.48325 10.56 5.66325 10.56H7.56325C9.74325 10.56 10.8933 9.41 10.8933 7.23V5.33C10.9033 3.15 9.75325 2 7.57325 2Z" fill="#676767"/>
<path opacity="0.4" d="M19.0027 2H17.1027C14.9227 2 13.7727 3.15 13.7727 5.33V7.23C13.7727 9.41 14.9227 10.56 17.1027 10.56H19.0027C21.1827 10.56 22.3327 9.41 22.3327 7.23V5.33C22.3327 3.15 21.1827 2 19.0027 2Z" fill="#676767"/>
<path d="M19.0027 13.4302H17.1027C14.9227 13.4302 13.7727 14.5802 13.7727 16.7602V18.6602C13.7727 20.8402 14.9227 21.9902 17.1027 21.9902H19.0027C21.1827 21.9902 22.3327 20.8402 22.3327 18.6602V16.7602C22.3327 14.5802 21.1827 13.4302 19.0027 13.4302Z" fill="#676767"/>
<path opacity="0.4" d="M7.57325 13.4302H5.67325C3.48325 13.4302 2.33325 14.5802 2.33325 16.7602V18.6602C2.33325 20.8502 3.48325 22.0002 5.66325 22.0002H7.56325C9.74325 22.0002 10.8933 20.8502 10.8933 18.6702V16.7702C10.9033 14.5802 9.75325 13.4302 7.57325 13.4302Z" fill="#676767"/>
</svg>
