<svg width="24" height="24" viewBox="0 0 24 24" fill="none" xmlns="http://www.w3.org/2000/svg">
<path d="M8.04681 10.3046C7.64917 10.3046 7.32681 10.627 7.32681 11.0246C7.32681 11.4222 7.64917 11.7446 8.04681 11.7446V10.3046ZM13.5812 11.7446C13.9789 11.7446 14.3012 11.4222 14.3012 11.0246C14.3012 10.627 13.9789 10.3046 13.5812 10.3046V11.7446ZM8.73609 12.3283C8.33845 12.3283 8.01609 12.6506 8.01609 13.0483C8.01609 13.4459 8.33845 13.7683 8.73609 13.7683V12.3283ZM12.889 13.7683C13.2867 13.7683 13.609 13.4459 13.609 13.0483C13.609 12.6506 13.2867 12.3283 12.889 12.3283V13.7683ZM7.57958 6.98133C7.18738 7.04691 6.92261 7.41802 6.9882 7.81022C7.05379 8.20242 7.4249 8.46719 7.81709 8.40161L7.57958 6.98133ZM8.17833 7.65211L8.17685 8.37211H8.17833V7.65211ZM13.4583 7.65211L13.4638 6.93211H13.4583V7.65211ZM16.3537 10.5907L15.6337 10.5854V10.5907H16.3537ZM15.5987 14.5593C15.5292 14.9509 15.7903 15.3245 16.1819 15.394C16.5734 15.4634 16.9471 15.2023 17.0165 14.8108L15.5987 14.5593ZM7.82348 8.4005C8.21507 8.33139 8.47649 7.95791 8.40738 7.56632C8.33826 7.17473 7.96478 6.91331 7.5732 6.98243L7.82348 8.4005ZM5.28009 10.5897H6.00011L6.00008 10.5859L5.28009 10.5897ZM5.28009 18.7199H4.56009C4.56009 18.9756 4.69562 19.212 4.91618 19.3412C5.13674 19.4704 5.40926 19.473 5.63221 19.348L5.28009 18.7199ZM8.17545 17.0966V16.3766C8.05214 16.3766 7.9309 16.4083 7.82334 16.4686L8.17545 17.0966ZM13.4554 17.0966V17.8166H13.4602L13.4554 17.0966ZM17.0112 14.8117C17.0795 14.42 16.8173 14.0471 16.4257 13.9787C16.0339 13.9103 15.6609 14.1724 15.5926 14.5642L17.0112 14.8117ZM6.98893 7.56838C6.92096 7.96018 7.18347 8.3329 7.57526 8.40087C7.96706 8.46885 8.33977 8.20633 8.40774 7.81455L6.98893 7.56838ZM10.5476 5.27995V4.55994L10.5434 4.55996L10.5476 5.27995ZM15.8276 5.27995L15.8337 4.55995H15.8276V5.27995ZM18.7201 8.21851L18.0001 8.21326V8.21851H18.7201ZM18.7201 11.7859H18.0001L18.0002 11.7907L18.7201 11.7859ZM16.1767 13.9789C15.7851 14.048 15.5237 14.4215 15.5929 14.8131C15.662 15.2047 16.0354 15.4661 16.427 15.397L16.1767 13.9789ZM8.04681 11.7446H13.5812V10.3046H8.04681V11.7446ZM8.73609 13.7683H12.889V12.3283H8.73609V13.7683ZM7.81709 8.40161C7.93598 8.38173 8.05632 8.37186 8.17685 8.37211L8.17982 6.93211C7.97872 6.93169 7.77794 6.94816 7.57958 6.98133L7.81709 8.40161ZM8.17833 8.37211H13.4583V6.93211H8.17833V8.37211ZM13.4529 8.37209C14.6663 8.38124 15.6425 9.37209 15.6337 10.5854L17.0737 10.5959C17.0882 8.58743 15.4722 6.94726 13.4638 6.93211L13.4529 8.37209ZM15.6337 10.5907V14.158H17.0737V10.5907H15.6337ZM15.6337 14.158C15.6338 14.2922 15.6221 14.4271 15.5987 14.5593L17.0165 14.8108C17.0548 14.595 17.0739 14.3772 17.0737 14.158H15.6337ZM7.5732 6.98243C5.82317 7.2913 4.55054 8.81654 4.56011 10.5935L6.00008 10.5859C5.99429 9.51044 6.76444 8.58742 7.82348 8.4005L7.5732 6.98243ZM4.56009 10.5897V18.7199H6.00009L6.00011 10.5897H4.56009ZM5.63221 19.348L8.52757 17.7246L7.82334 16.4686L4.92798 18.0919L5.63221 19.348ZM8.17545 17.8166H13.4554V16.3766H8.17545V17.8166ZM13.4602 17.8166C15.2146 17.8051 16.7095 16.5401 17.0112 14.8117L15.5926 14.5642C15.4106 15.6067 14.5089 16.3697 13.4507 16.3766L13.4602 17.8166ZM8.40774 7.81455C8.5889 6.7704 9.49204 6.00602 10.5518 5.99994L10.5434 4.55996C8.78658 4.57005 7.28927 5.83731 6.98893 7.56838L8.40774 7.81455ZM10.5476 5.99995H15.8276V4.55995L10.5476 4.55994V5.99995ZM15.8214 5.99992C17.034 6.01027 18.0089 7.00077 18.0001 8.21326L19.4401 8.22375C19.4546 6.21668 17.8408 4.57706 15.8337 4.55995L15.8214 5.99992ZM18.0001 8.21851V11.7859H19.4401V8.21851H18.0001ZM18.0002 11.7907C18.0074 12.8672 17.2369 13.7918 16.1767 13.9789L16.427 15.397C18.1788 15.0878 19.452 13.5599 19.4401 11.7811L18.0002 11.7907Z" fill="#676767"/>
</svg>
