<svg width="25" height="24" viewBox="0 0 25 24" fill="none" xmlns="http://www.w3.org/2000/svg">
<g clip-path="url(#clip0_54_506)">
<path fill-rule="evenodd" clip-rule="evenodd" d="M10.6667 1C10.4015 1 10.1472 1.10536 9.95964 1.29289L3.95964 7.29289C3.77211 7.48043 3.66675 7.73478 3.66675 8V20C3.66675 21.6569 5.0099 23 6.66675 23H8.66675C9.21903 23 9.66675 22.5523 9.66675 22C9.66675 21.4477 9.21903 21 8.66675 21H6.66675C6.11447 21 5.66675 20.5523 5.66675 20V9H10.6667C11.219 9 11.6667 8.55228 11.6667 8V3H18.6667C19.219 3 19.6667 3.44772 19.6667 4V7C19.6667 7.55228 20.1144 8 20.6667 8C21.219 8 21.6667 7.55228 21.6667 7V4C21.6667 2.34315 20.3236 1 18.6667 1H10.6667ZM9.66675 7H7.08096L9.66675 4.41421V7ZM12.6667 17C12.6667 14.2386 14.9053 12 17.6667 12C20.4281 12 22.6667 14.2386 22.6667 17C22.6667 19.7614 20.4281 22 17.6667 22C14.9053 22 12.6667 19.7614 12.6667 17ZM17.6667 10C13.8007 10 10.6667 13.134 10.6667 17C10.6667 20.866 13.8007 24 17.6667 24C21.5327 24 24.6667 20.866 24.6667 17C24.6667 13.134 21.5327 10 17.6667 10ZM17.2214 14.1679C16.9145 13.9634 16.52 13.9443 16.1948 14.1183C15.8697 14.2923 15.6667 14.6312 15.6667 15V19C15.6667 19.3688 15.8697 19.7077 16.1948 19.8817C16.52 20.0557 16.9145 20.0366 17.2214 19.8321L20.2214 17.8321C20.4996 17.6466 20.6667 17.3344 20.6667 17C20.6667 16.6656 20.4996 16.3534 20.2214 16.1679L17.2214 14.1679Z" fill="#676767"/>
</g>
<defs>
<clipPath id="clip0_54_506">
<rect width="24" height="24" fill="white" transform="translate(0.666748)"/>
</clipPath>
</defs>
</svg>
